<svg xmlns="http://www.w3.org/2000/svg" xmlns:xlink="http://www.w3.org/1999/xlink" width="200" height="200" viewBox="0 0 200 200">
  <defs>
    <clipPath id="clip-favicon-2-wbg">
      <rect width="200" height="200"/>
    </clipPath>
  </defs>
  <g id="favicon-2-wbg" clip-path="url(#clip-favicon-2-wbg)">
    <g id="esagono" transform="translate(14 200) rotate(-90)" fill="#fff">
      <path d="M 147.6985778808594 171.25 L 52.30132675170898 171.25 C 51.14797592163086 171.25 50.07137680053711 170.630615234375 49.49164962768555 169.6335144042969 L 1.81725001335144 87.63350677490234 C 1.231449961662292 86.62593078613281 1.231449961662292 85.37405395507812 1.81725001335144 84.36648559570312 L 49.49169921875 2.366507530212402 C 50.0713996887207 1.369407653808594 51.14799880981445 0.7500076293945312 52.30134963989258 0.7500076293945312 L 147.6985778808594 0.7500076293945312 C 148.8519287109375 0.7500076293945312 149.9285278320312 1.369407653808594 150.5082244873047 2.366507530212402 L 198.1827545166016 84.36648559570312 C 198.7685546875 85.37405395507812 198.7685546875 86.62593078613281 198.1827545166016 87.63350677490234 L 150.5082244873047 169.6335296630859 C 149.9285278320312 170.630615234375 148.8519287109375 171.25 147.6985778808594 171.25 Z" stroke="none"/>
      <path d="M 52.30134582519531 1.500015258789062 C 51.41415405273438 1.500015258789062 50.58599853515625 1.976455688476562 50.14007568359375 2.743423461914062 L 2.46563720703125 84.74343109130859 C 2.015029907226562 85.51850891113281 2.015029907226562 86.48148345947266 2.46563720703125 87.25656127929688 L 50.14004516601562 169.2565612792969 C 50.58596801757812 170.0235290527344 51.41413879394531 170.5 52.30131530761719 170.5 L 147.6985473632812 170.5 C 148.5857543945312 170.5 149.4139251708984 170.0235595703125 149.8598327636719 169.256591796875 L 197.5343475341797 87.25656127929688 C 197.9849700927734 86.48148345947266 197.9849700927734 85.51850891113281 197.5343475341797 84.74343109130859 L 149.8598327636719 2.743453979492188 C 149.4139251708984 1.976455688476562 148.5857543945312 1.500015258789062 147.6985473632812 1.500015258789062 L 52.30134582519531 1.500015258789062 M 52.30134582519531 1.52587890625e-05 L 147.6985473632812 1.52587890625e-05 C 149.123291015625 1.52587890625e-05 150.4404907226562 0.7578277587890625 151.1566009521484 1.989501953125 L 198.8311004638672 83.98950958251953 C 199.5537414550781 85.23242950439453 199.5537414550781 86.76756286621094 198.8311004638672 88.01048278808594 L 151.1566009521484 170.0105133056641 C 150.4404907226562 171.2421875 149.123291015625 172 147.6985473632812 172 L 52.30131530761719 172 C 50.87657165527344 172 49.55938720703125 171.2421875 48.84329223632812 170.0104827880859 L 1.168869018554688 88.01048278808594 C 0.446258544921875 86.76756286621094 0.446258544921875 85.23242950439453 1.168869018554688 83.98950958251953 L 48.84332275390625 1.989501953125 C 49.55941772460938 0.7578277587890625 50.87660217285156 1.52587890625e-05 52.30134582519531 1.52587890625e-05 Z" stroke="none" fill="#3f3d56"/>
    </g>
    <path id="esagono-2" data-name="esagono" d="M56.512,4.94a8.262,8.262,0,0,0-7.107,4.076L6.066,83.112a8.243,8.243,0,0,0,0,8.313l43.339,74.1a8.262,8.262,0,0,0,7.106,4.076h86.976a8.262,8.262,0,0,0,7.107-4.076l43.339-74.1a8.243,8.243,0,0,0,0-8.313l-43.339-74.1a8.262,8.262,0,0,0-7.107-4.076H56.512m0-4.94h86.976a13.173,13.173,0,0,1,11.37,6.522l43.339,74.1a13.173,13.173,0,0,1,0,13.3l-43.339,74.1a13.173,13.173,0,0,1-11.37,6.522H56.512a13.173,13.173,0,0,1-11.37-6.522L1.8,93.919a13.173,13.173,0,0,1,0-13.3l43.339-74.1A13.173,13.173,0,0,1,56.512,0Z" transform="translate(12.731 200) rotate(-90)" fill="#5d5d5d"/>
    <g id="cloud" transform="translate(42.068 40.825)">
      <path id="polygon4499" d="M5.59,50.5V64.072H10V46.782H2.762V50.5Z" transform="translate(0.064 5.701)" fill="#5d5d5d"/>
      <path id="polygon4501" d="M34.536,46.782H27.294V50.5h2.827V64.072h4.416Z" transform="translate(4.609 5.701)" fill="#5d5d5d"/>
      <path id="polygon4503" d="M23.172,64.152H15.93V67.87h2.827V81.444h4.416Z" transform="translate(2.504 8.919)" fill="#5d5d5d"/>
      <path id="polygon4505" d="M23.172,81.142H15.93v3.718h2.827V98.433h4.416Z" transform="translate(2.504 12.066)" fill="#5d5d5d"/>
      <path id="polygon4507" d="M34.536,64.152H27.294V67.87h2.827V81.444h4.416Z" transform="translate(4.609 8.919)" fill="#5d5d5d"/>
      <path id="path4509" d="M22.7,47.065a6.865,6.865,0,0,0-2.641-.56,7.231,7.231,0,0,0-2.617.516,6.094,6.094,0,0,0-3.9,6.05v4.811a6.152,6.152,0,0,0,3.879,6.029,6.792,6.792,0,0,0,2.64.537,6.724,6.724,0,0,0,2.85-.629,6.126,6.126,0,0,0,3.528-5.937V53.071A6.134,6.134,0,0,0,22.7,47.065ZM22.025,58c0,1.353-.444,2.566-2.033,2.566-1.519,0-2.033-1.238-2.033-2.566V52.955c0-1.31.514-2.571,2.033-2.571,1.589,0,2.033,1.214,2.033,2.571Z" transform="translate(2.062 5.65)" fill="#5d5d5d"/>
      <path id="polygon4511" d="M95.759,64.152H88.514V67.87h2.829V81.444h4.416Z" transform="translate(15.949 8.919)" fill="#5d5d5d"/>
      <path id="polygon4513" d="M95.759,81.142H88.514v3.718h2.829V98.433h4.416Z" transform="translate(15.949 12.066)" fill="#5d5d5d"/>
      <path id="path4515" d="M95.289,47.065a6.864,6.864,0,0,0-2.64-.56,7.237,7.237,0,0,0-2.618.516,6.093,6.093,0,0,0-3.9,6.05v4.811a6.152,6.152,0,0,0,3.879,6.029,6.762,6.762,0,0,0,5.49-.092,6.125,6.125,0,0,0,3.527-5.937V53.071A6.136,6.136,0,0,0,95.289,47.065ZM94.61,58c0,1.353-.444,2.566-2.033,2.566-1.519,0-2.03-1.238-2.03-2.566V52.955c0-1.31.511-2.571,2.03-2.571,1.589,0,2.033,1.214,2.033,2.571Z" transform="translate(15.507 5.65)" fill="#5d5d5d"/>
      <path id="polygon4517" d="M68.886,67.87V81.444H73.3V64.152H66.06V67.87Z" transform="translate(11.789 8.919)" fill="#5d5d5d"/>
      <path id="polygon4519" d="M84.667,64.152H77.423V67.87H80.25V81.444h4.417Z" transform="translate(13.894 8.919)" fill="#5d5d5d"/>
      <path id="path4521" d="M72.833,81.427a6.905,6.905,0,0,0-2.64-.559,7.209,7.209,0,0,0-2.616.514,6.1,6.1,0,0,0-3.9,6.049v4.815a6.156,6.156,0,0,0,3.88,6.029,6.853,6.853,0,0,0,2.641.537,6.661,6.661,0,0,0,2.848-.633,6.122,6.122,0,0,0,3.528-5.934V87.431A6.128,6.128,0,0,0,72.833,81.427Zm-.678,10.935c0,1.357-.442,2.57-2.033,2.57-1.518,0-2.03-1.238-2.03-2.57V87.319c0-1.31.513-2.573,2.03-2.573,1.59,0,2.033,1.218,2.033,2.573Z" transform="translate(11.347 12.015)" fill="#5d5d5d"/>
      <path id="path4523" d="M9.537,64.437a6.848,6.848,0,0,0-2.642-.559,7.205,7.205,0,0,0-2.614.513,6.1,6.1,0,0,0-3.9,6.054v4.812a6.158,6.158,0,0,0,3.879,6.029,6.883,6.883,0,0,0,2.639.534,6.664,6.664,0,0,0,2.85-.629,6.123,6.123,0,0,0,3.528-5.934V70.445a6.131,6.131,0,0,0-3.736-6.007Zm-.68,10.934c0,1.357-.444,2.57-2.033,2.57-1.518,0-2.032-1.24-2.032-2.57V70.324c0-1.306.514-2.566,2.032-2.566,1.589,0,2.033,1.213,2.033,2.566Z" transform="translate(-0.377 8.868)" fill="#5d5d5d"/>
      <path id="polygon4525" d="M42.443,50.5V64.072h4.415V46.782H39.615V50.5Z" transform="translate(6.891 5.701)" fill="#5d5d5d"/>
      <path id="polygon4527" d="M60.025,64.152H52.783V67.87h2.828V81.444h4.415Z" transform="translate(9.33 8.919)" fill="#5d5d5d"/>
      <path id="polygon4529" d="M60.025,81.142H52.783v3.718h2.828V98.433h4.415Z" transform="translate(9.33 12.066)" fill="#5d5d5d"/>
      <path id="path4531" d="M46.39,64.437a6.853,6.853,0,0,0-2.642-.559,7.216,7.216,0,0,0-2.615.513,6.1,6.1,0,0,0-3.9,6.054v4.812a6.158,6.158,0,0,0,3.879,6.029,6.883,6.883,0,0,0,2.639.534,6.664,6.664,0,0,0,2.85-.629,6.123,6.123,0,0,0,3.528-5.934V70.445a6.131,6.131,0,0,0-3.736-6.007Zm-.678,10.934c0,1.357-.444,2.57-2.033,2.57-1.518,0-2.032-1.24-2.032-2.57V70.324c0-1.306.514-2.566,2.032-2.566,1.589,0,2.033,1.213,2.033,2.566Z" transform="translate(6.449 8.868)" fill="#5d5d5d"/>
      <path id="path4533" d="M95.38,51.793h1.33l13.585.025.5-.5a19.483,19.483,0,0,0-10.711-32.713.487.487,0,0,0-.06-.008,19.5,19.5,0,0,0-38.057-1.566A19.487,19.487,0,0,0,30.488,29.166,19.492,19.492,0,0,0,1.349,51.589v.021h.007l6.754.012,23.519.047,6.754.013,9.249.02H48.7c.348.019.7.028,1.053.028V51.7l2.114,0c.016,0,.034,0,.051-.007l7.135.019a19.5,19.5,0,0,0,2.6,4.641,6.313,6.313,0,0,0-1.99,4.862v4.812a6.152,6.152,0,0,0,3.879,6.029,6.788,6.788,0,0,0,2.64.537,6.72,6.72,0,0,0,2.85-.629,6.127,6.127,0,0,0,3.527-5.937V63.595a19.435,19.435,0,0,0,2.838.476v1.962a6.153,6.153,0,0,0,3.88,6.029,6.789,6.789,0,0,0,2.641.537,6.71,6.71,0,0,0,2.848-.629,6.126,6.126,0,0,0,3.528-5.937V60.711a19.773,19.773,0,0,0,2.45-2.014H94.52V72.273h4.417V54.984H93.752a19.442,19.442,0,0,0,1.628-3.191Zm-59.873-6.21-2.36,0L6.619,45.527v-.008a13.262,13.262,0,0,1,24.9-6.359c-.011-.029-.021-.06-.03-.091a19.529,19.529,0,0,0,4.071,6.515h-.055Zm32.638,20.57c0,1.353-.445,2.566-2.033,2.566-1.519,0-2.033-1.238-2.033-2.566V61.106A3.3,3.3,0,0,1,64.49,59.4,19.57,19.57,0,0,0,68.146,61.9v4.25Zm15.734,0c0,1.353-.442,2.566-2.033,2.566-1.518,0-2.03-1.238-2.03-2.566V63.984a19.289,19.289,0,0,0,4.063-1v3.168Zm-6.647-8.232A13.278,13.278,0,0,1,64.006,45.637v0A.489.489,0,0,1,64,45.562l-6.251-.013c0,.023,0,.049.006.075l-8.688-.02a13.331,13.331,0,0,1,.688-26.641A13.277,13.277,0,0,1,63.018,32.226h6.241c0-.364-.014-.725-.032-1.082-.006-.1-.019-.208-.025-.308-.019-.26-.039-.521-.069-.779-.012-.1-.025-.19-.036-.285-.036-.284-.075-.564-.123-.842-.008-.049-.016-.1-.023-.145a19.857,19.857,0,0,0-.738-2.844L67.561,22a13.265,13.265,0,0,1,26.107-3.325c.017,0,.037-.006.058-.008a13.166,13.166,0,0,1,.044,6.216,13.413,13.413,0,0,1,2.968-.336A13.257,13.257,0,0,1,107.382,45.72L90.438,45.7c0,.013.014.026.018.039a12.573,12.573,0,0,1-.977,4.013A13.29,13.29,0,0,1,77.232,57.921Z" transform="translate(-0.377 -2.501)" fill="#5d5d5d"/>
    </g>
  </g>
</svg>
